<?xml version="1.0" standalone="no"?>
<!DOCTYPE svg PUBLIC "-//W3C//DTD SVG 20010904//EN"
 "http://www.w3.org/TR/2001/REC-SVG-20010904/DTD/svg10.dtd">
<svg version="1.0" xmlns="http://www.w3.org/2000/svg"
 width="336.000000pt" height="505.000000pt" viewBox="0 0 336.000000 505.000000"
 preserveAspectRatio="xMidYMid meet">

<g transform="translate(0.000000,505.000000) scale(0.100000,-0.100000)"
fill="#000000" stroke="none">
<path d="M1180 4954 c-133 -35 -241 -117 -311 -235 -87 -146 -150 -195 -289
-223 -47 -10 -110 -30 -140 -44 -71 -35 -150 -113 -184 -184 -58 -118 -57 -91
-54 -1669 3 -1371 4 -1447 22 -1499 69 -208 219 -358 420 -419 67 -21 83 -21
1028 -21 1067 0 1016 -3 1153 68 88 45 207 162 253 249 18 34 41 96 52 139 19
75 20 116 20 1529 0 1405 -1 1454 -19 1528 -26 100 -43 131 -110 198 -70 70
-133 103 -237 123 -43 9 -88 18 -100 21 -49 11 -117 79 -189 190 -98 152 -183
216 -332 251 -88 21 -175 14 -326 -25 -65 -17 -137 -31 -160 -31 -23 0 -104
16 -180 35 -152 38 -227 43 -317 19z m235 -399 c86 -35 145 -126 145 -225 0
-71 -15 -112 -60 -164 -116 -132 -322 -105 -402 53 -57 111 -25 241 76 309 27
17 62 36 80 41 36 11 118 4 161 -14z m725 -2 c129 -53 184 -216 115 -342 -33
-61 -72 -94 -134 -116 -206 -72 -401 148 -302 342 35 70 98 116 186 136 28 7
94 -3 135 -20z m-1326 -427 c96 -29 163 -110 173 -209 23 -222 -244 -358 -408
-210 -59 54 -83 105 -83 183 0 73 17 115 68 168 68 73 154 97 250 68z m1904
-10 c127 -66 178 -211 116 -334 -63 -127 -204 -172 -334 -107 -25 13 -55 34
-67 47 -54 58 -77 163 -53 249 19 68 97 140 175 160 42 11 127 3 163 -15z
m-873 -488 c347 -101 655 -449 655 -741 0 -181 -97 -323 -253 -373 -78 -25
-242 -29 -426 -10 -150 16 -172 16 -323 0 -410 -42 -568 15 -659 237 -46 111
-25 280 53 419 75 135 230 292 369 374 92 55 225 105 309 116 78 11 193 2 275
-22z"/>
<path d="M2862 534 c-14 -10 -22 -25 -22 -45 0 -22 -5 -29 -20 -29 -11 0 -20
-6 -20 -14 0 -7 9 -16 20 -19 17 -4 20 -14 20 -66 0 -46 -4 -63 -15 -67 -8 -4
-15 -12 -15 -20 0 -10 15 -14 55 -14 40 0 55 4 55 14 0 7 -9 16 -20 19 -17 4
-20 14 -20 71 l0 66 30 0 c20 0 30 5 30 15 0 10 -10 15 -30 15 -16 0 -30 4
-30 9 0 26 15 41 40 41 33 0 49 18 29 31 -22 14 -62 11 -87 -7z"/>
<path d="M230 510 c0 -11 5 -20 10 -20 6 0 10 -40 10 -100 0 -60 -4 -100 -10
-100 -5 0 -10 -7 -10 -15 0 -11 12 -15 50 -15 38 0 50 4 50 15 0 8 -7 15 -15
15 -12 0 -15 15 -15 78 l0 77 20 -30 c11 -16 37 -58 57 -92 28 -48 43 -63 60
-63 23 0 23 2 23 111 0 92 3 114 17 124 25 19 6 35 -43 35 -37 0 -44 -3 -44
-20 0 -11 7 -20 15 -20 12 0 15 -15 15 -71 0 -38 -4 -68 -8 -65 -5 3 -32 43
-60 90 -50 81 -55 86 -87 86 -28 0 -35 -4 -35 -20z"/>
<path d="M1290 510 c0 -11 5 -20 10 -20 6 0 10 -38 10 -94 0 -53 -4 -98 -10
-101 -5 -3 -10 -13 -10 -21 0 -10 12 -14 45 -14 33 0 45 4 45 15 0 8 -4 15
-10 15 -6 0 -10 32 -10 77 l0 78 56 -93 c46 -75 61 -92 80 -92 24 0 24 1 24
115 0 70 4 115 10 115 6 0 10 9 10 20 0 17 -7 20 -45 20 -38 0 -45 -3 -45 -20
0 -11 5 -20 10 -20 6 0 10 -31 10 -72 l0 -73 -56 93 c-53 87 -58 92 -90 92
-27 0 -34 -4 -34 -20z"/>
<path d="M2408 514 c-38 -20 -58 -63 -58 -124 0 -97 38 -133 135 -128 l60 3 3
38 c3 32 0 37 -17 37 -14 0 -21 -6 -21 -19 0 -40 -77 -34 -99 8 -19 35 -13
119 10 142 29 29 83 23 87 -9 3 -16 8 -22 19 -18 8 3 17 6 19 6 2 0 4 13 4 30
0 19 -7 33 -19 40 -28 14 -91 12 -123 -6z"/>
<path d="M805 461 c-42 -18 -60 -51 -60 -106 0 -67 22 -95 75 -95 20 0 41 5
48 12 9 9 12 9 12 0 0 -7 13 -12 30 -12 20 0 30 5 30 15 0 8 -4 15 -10 15 -6
0 -10 33 -10 79 0 44 -4 82 -8 85 -18 11 -88 15 -107 7z m65 -89 c0 -60 -11
-82 -42 -82 -33 0 -49 61 -28 114 7 20 16 26 40 26 30 0 30 0 30 -58z"/>
<path d="M1058 456 c-16 -8 -28 -11 -28 -5 0 5 -16 9 -35 9 -24 0 -35 -5 -35
-15 0 -8 7 -15 15 -15 12 0 15 -14 15 -70 0 -40 -4 -70 -10 -70 -5 0 -10 -7
-10 -15 0 -11 12 -15 45 -15 33 0 45 4 45 15 0 8 -5 15 -10 15 -18 0 -8 121
11 133 35 22 49 2 49 -68 0 -37 -4 -65 -10 -65 -5 0 -10 -7 -10 -15 0 -11 12
-15 45 -15 33 0 45 4 45 15 0 8 -4 15 -10 15 -6 0 -10 29 -10 68 0 39 -5 75
-12 85 -19 24 -59 29 -90 13z"/>
<path d="M1865 461 c-42 -18 -60 -51 -60 -106 0 -67 22 -95 75 -95 20 0 41 5
48 12 9 9 12 9 12 0 0 -7 13 -12 30 -12 20 0 30 5 30 15 0 8 -4 15 -10 15 -6
0 -10 33 -10 79 0 44 -4 82 -8 85 -18 11 -88 15 -107 7z m65 -89 c0 -60 -11
-82 -42 -82 -33 0 -49 61 -28 114 7 20 16 26 40 26 30 0 30 0 30 -58z"/>
<path d="M2118 456 c-16 -8 -28 -11 -28 -5 0 5 -16 9 -35 9 -36 0 -50 -22 -20
-34 11 -4 15 -21 15 -66 0 -45 -4 -62 -15 -66 -8 -4 -15 -12 -15 -20 0 -10 14
-14 50 -14 38 0 50 4 50 15 0 8 -5 15 -10 15 -7 0 -10 25 -8 68 3 62 5 67 27
70 32 5 41 -12 41 -80 0 -45 -3 -58 -15 -58 -8 0 -15 -7 -15 -15 0 -11 12 -15
50 -15 38 0 50 4 50 15 0 8 -4 15 -10 15 -6 0 -10 28 -10 65 0 57 -3 69 -25
90 -28 29 -40 30 -77 11z"/>
<path d="M2645 457 c-49 -23 -72 -106 -44 -160 18 -33 26 -35 111 -35 61 0 78
3 78 14 0 8 -4 14 -10 14 -6 0 -10 33 -10 79 0 44 -4 82 -8 85 -22 14 -89 15
-117 3z m73 -88 c-2 -46 -8 -65 -20 -73 -29 -18 -53 4 -56 52 -4 56 11 82 49
82 l30 0 -3 -61z"/>
<path d="M3020 457 c-58 -29 -75 -132 -29 -178 24 -24 116 -28 125 -4 10 25
-4 34 -36 22 -24 -9 -32 -8 -49 8 -26 23 -27 35 -2 35 84 0 132 88 65 119 -31
14 -43 14 -74 -2z m58 -49 c-2 -13 -14 -25 -31 -31 -36 -11 -43 -4 -29 28 15
34 65 36 60 3z"/>
<path d="M510 445 c0 -8 5 -15 10 -15 6 0 10 -26 10 -58 0 -71 19 -102 61
-102 17 0 39 5 50 10 16 9 19 7 19 -14 0 -32 -25 -56 -57 -56 -17 0 -27 7 -30
21 -4 12 -11 18 -20 15 -8 -3 -17 -6 -19 -6 -9 0 -3 -49 7 -56 6 -3 33 -6 61
-6 82 0 92 17 96 162 l4 120 -36 0 c-25 0 -36 -4 -36 -15 0 -8 5 -15 10 -15 6
0 10 -25 10 -55 0 -43 -4 -56 -19 -65 -40 -21 -51 -3 -51 76 l0 74 -35 0 c-24
0 -35 -5 -35 -15z"/>
<path d="M1570 446 c0 -8 5 -18 10 -21 6 -3 10 -33 10 -65 0 -40 5 -64 16 -74
17 -18 79 -22 89 -6 13 21 27 9 20 -17 -10 -40 -24 -53 -55 -53 -19 0 -29 6
-33 20 -8 30 -37 14 -37 -20 0 -25 4 -28 38 -32 46 -6 95 7 113 29 10 11 15
54 18 135 l3 118 -36 0 c-35 0 -50 -20 -26 -35 6 -3 10 -26 10 -50 0 -47 -22
-80 -47 -71 -8 3 -17 6 -19 6 -2 0 -4 34 -4 75 l0 75 -35 0 c-24 0 -35 -5 -35
-14z"/>
</g>
</svg>
